<svg xmlns="http://www.w3.org/2000/svg" version="1.1" xmlns:xlink="http://www.w3.org/1999/xlink" viewBox="0 0 200 200"><rect width="200" height="200" fill="url('#gradient')"></rect><defs><linearGradient id="gradient" gradientTransform="rotate(45 0.5 0.5)"><stop offset="0%" stop-color="#dee90b"></stop><stop offset="100%" stop-color="#d9e241"></stop></linearGradient></defs><g><g fill="#1b3855" transform="matrix(1.4840579710144928,0,0,1.4840579710144928,8.407612071866566,110.55590982022493)" stroke="#0e5278" stroke-width="0.2"><path d="M1.07-14.22L5.58-14.22L8.75-4.33L11.91-14.22L16.43-14.22L16.43 0L12.99 0L12.99-3.32L13.32-10.12L9.88 0L7.62 0L4.17-10.13L4.50-3.32L4.50 0L1.07 0L1.07-14.22ZM24.38 0L18.60 0L18.60-14.22L23.71-14.22Q26.46-14.22 27.89-13.21Q29.32-12.21 29.32-10.29L29.32-10.29Q29.32-9.19 28.81-8.41Q28.30-7.63 27.31-7.26L27.31-7.26Q28.43-6.96 29.02-6.16Q29.62-5.36 29.62-4.21L29.62-4.21Q29.62-2.12 28.30-1.07Q26.97-0.02 24.38 0L24.38 0ZM24.43-6.04L22.03-6.04L22.03-2.64L24.28-2.64Q25.21-2.64 25.70-3.06Q26.20-3.49 26.20-4.26L26.20-4.26Q26.20-6.04 24.43-6.04L24.43-6.04ZM22.03-11.57L22.03-8.29L23.82-8.29Q24.94-8.30 25.42-8.70Q25.90-9.10 25.90-9.88L25.90-9.88Q25.90-10.78 25.38-11.18Q24.86-11.57 23.71-11.57L23.71-11.57L22.03-11.57ZM42.40-14.22L42.40-11.57L38.13-11.57L38.13 0L34.71 0L34.71-11.57L30.52-11.57L30.52-14.22L42.40-14.22ZM47.50-14.22L47.50 0L44.08 0L44.08-14.22L47.50-14.22ZM54.86-14.22L59.37-14.22L62.54-4.33L65.70-14.22L70.21-14.22L70.21 0L66.78 0L66.78-3.32L67.11-10.12L63.67 0L61.41 0L57.96-10.13L58.29-3.32L58.29 0L54.86 0L54.86-14.22ZM81.47 0L80.64-2.66L75.95-2.66L75.13 0L71.46 0L76.68-14.22L79.90-14.22L85.16 0L81.47 0ZM78.29-10.23L76.77-5.30L79.82-5.30L78.29-10.23ZM96.18-14.22L96.18-11.57L91.91-11.57L91.91 0L88.49 0L88.49-11.57L84.30-11.57L84.30-14.22L96.18-14.22ZM105.45-4.81L108.86-4.81Q108.79-3.33 108.06-2.19Q107.32-1.05 106.00-0.43Q104.68 0.20 102.98 0.20L102.98 0.20Q100.18 0.20 98.56-1.63Q96.95-3.46 96.95-6.79L96.95-6.79L96.95-7.49Q96.95-9.58 97.68-11.15Q98.41-12.71 99.78-13.57Q101.14-14.42 102.94-14.42L102.94-14.42Q105.53-14.42 107.10-13.06Q108.67-11.70 108.89-9.31L108.89-9.31L105.47-9.31Q105.43-10.61 104.81-11.17Q104.20-11.74 102.94-11.74L102.94-11.74Q101.66-11.74 101.06-10.78Q100.47-9.82 100.44-7.72L100.44-7.72L100.44-6.72Q100.44-4.44 101.01-3.47Q101.58-2.49 102.98-2.49L102.98-2.49Q104.16-2.49 104.79-3.05Q105.41-3.60 105.45-4.81L105.45-4.81ZM122.36-14.22L122.36 0L118.96 0L118.96-5.94L113.91-5.94L113.91 0L110.48 0L110.48-14.22L113.91-14.22L113.91-8.57L118.96-8.57L118.96-14.22L122.36-14.22Z"></path></g></g></svg>